<svg width="40" height="40" viewBox="0 0 40 40" fill="none" xmlns="http://www.w3.org/2000/svg">
<g id="ic24-close">
<path id="Icon" fill-rule="evenodd" clip-rule="evenodd" d="M23.0302 20.0004L34.3721 8.65836C35.21 7.82051 35.21 6.46624 34.3721 5.62839C33.5343 4.79054 32.18 4.79054 31.3422 5.62839L20.0002 16.9704L8.65832 5.62839C7.82048 4.79054 6.46622 4.79054 5.62838 5.62839C4.79054 6.46624 4.79054 7.82051 5.62838 8.65836L16.9703 20.0004L5.62838 31.3424C4.79054 32.1803 4.79054 33.5345 5.62838 34.3724C6.04623 34.7903 6.59479 35.0002 7.14335 35.0002C7.69191 35.0002 8.24047 34.7903 8.65832 34.3724L20.0002 23.0304L31.3422 34.3724C31.76 34.7903 32.3086 35.0002 32.8571 35.0002C33.4057 35.0002 33.9543 34.7903 34.3721 34.3724C35.21 33.5345 35.21 32.1803 34.3721 31.3424L23.0302 20.0004Z" fill="black"/>
</g>
</svg>
